<?xml version="1.0" encoding="UTF-8" standalone="no"?>
<!-- Created with Inkscape (http://www.inkscape.org/) -->

<svg
   xmlns:dc="http://purl.org/dc/elements/1.1/"
   xmlns:cc="http://creativecommons.org/ns#"
   xmlns:rdf="http://www.w3.org/1999/02/22-rdf-syntax-ns#"
   xmlns:svg="http://www.w3.org/2000/svg"
   xmlns="http://www.w3.org/2000/svg"
   xmlns:sodipodi="http://sodipodi.sourceforge.net/DTD/sodipodi-0.dtd"
   xmlns:inkscape="http://www.inkscape.org/namespaces/inkscape"
   width="203.45593mm"
   height="29.677076mm"
   viewBox="0 0 203.45593 29.677076"
   version="1.1"
   id="svg8"
   inkscape:version="0.92.1 r15371"
   sodipodi:docname="fmhs1.svg">
  <defs
     id="defs2" />
  <sodipodi:namedview
     id="base"
     pagecolor="#ffffff"
     bordercolor="#666666"
     borderopacity="1.0"
     inkscape:pageopacity="0.0"
     inkscape:pageshadow="2"
     inkscape:zoom="0.35"
     inkscape:cx="-74.838396"
     inkscape:cy="-439.63162"
     inkscape:document-units="mm"
     inkscape:current-layer="layer1"
     showgrid="false"
     fit-margin-top="0"
     fit-margin-left="0"
     fit-margin-right="0"
     fit-margin-bottom="0"
     inkscape:window-width="2560"
     inkscape:window-height="1356"
     inkscape:window-x="1072"
     inkscape:window-y="149"
     inkscape:window-maximized="1" />
  <metadata
     id="metadata5">
    <rdf:RDF>
      <cc:Work
         rdf:about="">
        <dc:format>image/svg+xml</dc:format>
        <dc:type
           rdf:resource="http://purl.org/dc/dcmitype/StillImage" />
        <dc:title></dc:title>
      </cc:Work>
    </rdf:RDF>
  </metadata>
  <g
     inkscape:label="Layer 1"
     inkscape:groupmode="layer"
     id="layer1"
     transform="translate(-2.7920637,-2.8370577)">
    <g
       transform="matrix(0.18650283,0,0,-0.18650283,2.7920637,32.514134)"
       inkscape:label="ink_ext_XXXXXX"
       id="g4493">
      <g
         transform="scale(0.1)"
         id="g4495">
        <path
           inkscape:connector-curvature="0"
           id="path4497"
           style="fill:#10427a;fill-opacity:1;fill-rule:nonzero;stroke:none"
           d="m 0,1343.87 242.852,242.85 H 4803.89 V 242.852 L 4561.03,0 H 0 v 1343.87" />
        <path
           inkscape:connector-curvature="0"
           id="path4499"
           style="fill:#ffffff;fill-opacity:1;fill-rule:nonzero;stroke:none"
           d="m 1731.21,538.5 h 14.31 v 96.441 h 34.46 v 14.289 h -83.25 v -14.289 h 34.48 V 538.5" />
        <path
           inkscape:connector-curvature="0"
           id="path4501"
           style="fill:#ffffff;fill-opacity:1;fill-rule:nonzero;stroke:none"
           d="m 1787.54,582.34 c 1.77,11.535 7.73,18.008 17.67,18.008 9.2,0 14.92,-6.989 15.36,-18.008 z m 17.37,30.551 c -18.07,0 -30.63,-14.961 -30.63,-37.039 0,-20.122 11.37,-38.774 31.82,-38.774 11.08,0 18.25,2.75 26.12,8.582 v 13.93 c -7.56,-5.512 -15.04,-8.75 -22.92,-8.75 -12.56,0 -19.99,7.531 -22.04,21.91 h 46.16 c 0,26.977 -11.12,40.141 -28.51,40.141" />
        <path
           inkscape:connector-curvature="0"
           id="path4503"
           style="fill:#ffffff;fill-opacity:1;fill-rule:nonzero;stroke:none"
           d="m 1958.98,649.23 h -13.58 l -27.61,-76.308 -27.43,76.308 h -14.33 l 40.33,-111.679 h 2.76 l 33.02,90.57 32.67,-90.57 h 2.81 l 40.44,111.679 h -14.16 l -27.19,-76.308 -27.73,76.308" />
        <path
           inkscape:connector-curvature="0"
           id="path4505"
           style="fill:#ffffff;fill-opacity:1;fill-rule:nonzero;stroke:none"
           d="m 2100.1,538.5 v 44.629 c 0,19.984 -9.51,29.762 -22.33,29.762 -7.3,0 -14.63,-4.09 -19.57,-11.051 h -0.29 v 47.39 h -13 V 538.5 h 13 v 52.301 c 6.11,7.59 10.64,10.551 16.37,10.551 7.84,0 12.85,-7 12.85,-17.68 V 538.5 h 12.97" />
        <path
           inkscape:connector-curvature="0"
           id="path4507"
           style="fill:#ffffff;fill-opacity:1;fill-rule:nonzero;stroke:none"
           d="m 2154.49,553.301 c -3.53,-3.75 -7.31,-6 -11.4,-6 -5.39,0 -9.33,4.211 -9.33,10.219 0,8.582 9.61,12.839 20.73,17.05 z m -11.55,24.66 c -10.52,-4.223 -22.33,-8.582 -22.33,-23.039 0,-9.422 6.4,-17.844 16.03,-17.844 6.01,0 12,2.442 17.69,7.461 1.2,-5.187 4.25,-7.461 9.92,-7.461 4.09,0 6.58,1.274 12.53,5.672 v 8.762 c -2.87,-2.461 -5.5,-3.91 -6.83,-3.91 -1.61,0 -2.48,0.976 -2.48,3.738 v 37.48 c 0,16.555 -10.53,24.071 -23.8,24.071 -9.46,0 -16.66,-3.243 -21.77,-9.934 v -15.758 c 6.31,8.324 13.57,12.016 20.75,12.016 7.87,0 11.84,-3.692 11.84,-12.785 v -3.91 l -11.55,-4.559" />
        <path
           inkscape:connector-curvature="0"
           id="path4509"
           style="fill:#ffffff;fill-opacity:1;fill-rule:nonzero;stroke:none"
           d="M 2197.02,611.383 V 538.5 h 12.97 v 38.16 c 0,12.52 7.02,22.387 15.91,22.387 3.08,0 8.18,-2.922 12.12,-7.102 l 6.86,12.481 c -5.39,5.683 -10.33,8.465 -15.62,8.465 -6.11,0 -12.38,-5.403 -18.98,-18.207 h -0.29 v 16.699 h -12.97" />
        <path
           inkscape:connector-curvature="0"
           id="path4511"
           style="fill:#ffffff;fill-opacity:1;fill-rule:nonzero;stroke:none"
           d="m 2268.89,582.34 c 1.73,11.535 7.71,18.008 17.65,18.008 9.2,0 14.88,-6.989 15.31,-18.008 z m 17.35,30.551 c -18.1,0 -30.64,-14.961 -30.64,-37.039 0,-20.122 11.39,-38.774 31.83,-38.774 11.09,0 18.23,2.75 26.13,8.582 v 13.93 c -7.61,-5.512 -15.04,-8.75 -22.91,-8.75 -12.57,0 -20.03,7.531 -22.08,21.91 h 46.16 c 0,26.977 -11.09,40.141 -28.49,40.141" />
        <path
           inkscape:connector-curvature="0"
           id="path4513"
           style="fill:#ffffff;fill-opacity:1;fill-rule:nonzero;stroke:none"
           d="m 2440.32,649.23 h -13.6 l -27.58,-76.308 -27.45,76.308 h -14.32 l 40.29,-111.679 h 2.8 l 32.98,90.57 32.72,-90.57 h 2.76 l 40.47,111.679 h -14.19 l -27.14,-76.308 -27.74,76.308" />
        <path
           inkscape:connector-curvature="0"
           id="path4515"
           style="fill:#ffffff;fill-opacity:1;fill-rule:nonzero;stroke:none"
           d="m 2546.25,553.301 c -3.51,-3.75 -7.35,-6 -11.4,-6 -5.43,0 -9.37,4.211 -9.37,10.219 0,8.582 9.67,12.839 20.77,17.05 z m -11.53,24.66 c -10.53,-4.223 -22.37,-8.582 -22.37,-23.039 0,-9.422 6.42,-17.844 16.05,-17.844 6.04,0 11.99,2.442 17.67,7.461 1.14,-5.187 4.24,-7.461 9.94,-7.461 4.07,0 6.56,1.274 12.57,5.672 v 8.762 c -2.91,-2.461 -5.52,-3.91 -6.87,-3.91 -1.63,0 -2.48,0.976 -2.48,3.738 v 37.48 c 0,16.555 -10.51,24.071 -23.8,24.071 -9.51,0 -16.66,-3.243 -21.73,-9.934 v -15.758 c 6.24,8.324 13.55,12.016 20.74,12.016 7.85,0 11.81,-3.692 11.81,-12.785 v -3.91 l -11.53,-4.559" />
        <path
           inkscape:connector-curvature="0"
           id="path4517"
           style="fill:#ffffff;fill-opacity:1;fill-rule:nonzero;stroke:none"
           d="m 2642.78,538.5 v 45.012 c 0,19.933 -9.94,29.379 -22.33,29.379 -7.32,0 -14.6,-4.09 -19.58,-11.051 h -0.28 v 9.543 h -13.01 V 538.5 h 13.01 v 52.301 c 6.11,7.59 10.64,10.551 16.34,10.551 7.9,0 12.82,-7 12.82,-17.68 V 538.5 h 13.03" />
        <path
           inkscape:connector-curvature="0"
           id="path4519"
           style="fill:#ffffff;fill-opacity:1;fill-rule:nonzero;stroke:none"
           d="m 2697.14,553.301 c -3.49,-3.75 -7.27,-6 -11.39,-6 -5.39,0 -9.35,4.211 -9.35,10.219 0,8.582 9.69,12.839 20.74,17.05 z m -11.51,24.66 c -10.5,-4.223 -22.36,-8.582 -22.36,-23.039 0,-9.422 6.44,-17.844 16.08,-17.844 5.98,0 11.96,2.442 17.66,7.461 1.17,-5.187 4.25,-7.461 9.89,-7.461 4.13,0 6.59,1.274 12.6,5.672 v 8.762 c -2.96,-2.461 -5.52,-3.91 -6.87,-3.91 -1.6,0 -2.48,0.976 -2.48,3.738 v 37.48 c 0,16.555 -10.51,24.071 -23.78,24.071 -9.53,0 -16.66,-3.243 -21.78,-9.934 v -15.758 c 6.29,8.324 13.6,12.016 20.74,12.016 7.87,0 11.81,-3.692 11.81,-12.785 v -3.91 l -11.51,-4.559" />
        <path
           inkscape:connector-curvature="0"
           id="path4521"
           style="fill:#ffffff;fill-opacity:1;fill-rule:nonzero;stroke:none"
           d="m 2793.73,538.5 v 45.012 c 0,19.933 -9.95,29.379 -22.39,29.379 -7.29,0 -14.57,-4.09 -19.55,-11.051 h -0.31 v 9.543 h -12.99 V 538.5 h 12.99 v 52.301 c 6.14,7.59 10.7,10.551 16.38,10.551 7.9,0 12.84,-7 12.84,-17.68 V 538.5 h 13.03" />
        <path
           inkscape:connector-curvature="0"
           id="path4523"
           style="fill:#ffffff;fill-opacity:1;fill-rule:nonzero;stroke:none"
           d="m 2841.1,572.422 c -7.95,0 -13.19,5.387 -13.19,13.34 0,7.136 5.88,13.117 13.01,13.117 6.88,0 12.68,-5.828 12.68,-12.801 0,-7.988 -5.22,-13.656 -12.5,-13.656 z m -3.55,-37.524 c 8.02,0 21.49,-2.398 21.49,-11.648 0,-6.648 -6.72,-10.539 -18.12,-10.539 -11.81,0 -18.23,3.891 -18.23,11.211 0,6.449 6.11,10.976 14.86,10.976 z m 34.32,76.485 h -26.97 c -17.71,0 -28.65,-9.543 -28.65,-25.133 0,-5.371 1.2,-9.93 3.48,-13.672 2.48,-3.906 6.16,-7.008 11.01,-9.269 v -0.36 c -6.34,-1.617 -10.42,-5.687 -10.42,-10.367 0,-3.254 2.05,-6.191 6.59,-9.254 -11.38,-3.078 -16.51,-9.418 -16.51,-20.078 0,-12.828 12.57,-22.051 30.21,-22.051 19.45,0 30.98,8.762 30.98,23.192 0,9.23 -4.93,17.148 -18.97,20.25 -13.18,2.898 -20.01,5.339 -20.01,9.379 0,8.609 17.81,3.429 26.54,13.832 3.08,3.449 6.16,10.449 6.16,16.41 0,6.187 -1.75,10.269 -6.88,15.957 h 13.44 v 11.164" />
        <path
           inkscape:connector-curvature="0"
           id="path4525"
           style="fill:#ffffff;fill-opacity:1;fill-rule:nonzero;stroke:none"
           d="m 2918.17,553.301 c -3.46,-3.75 -7.27,-6 -11.36,-6 -5.39,0 -9.38,4.211 -9.38,10.219 0,8.582 9.66,12.839 20.74,17.05 z m -11.49,24.66 c -10.55,-4.223 -22.36,-8.582 -22.36,-23.039 0,-9.422 6.42,-17.844 16.08,-17.844 5.96,0 11.94,2.442 17.64,7.461 1.17,-5.187 4.29,-7.461 9.94,-7.461 4.1,0 6.57,1.274 12.58,5.672 v 8.762 c -2.96,-2.461 -5.55,-3.91 -6.9,-3.91 -1.58,0 -2.46,0.976 -2.46,3.738 v 37.48 c 0,16.555 -10.53,24.071 -23.82,24.071 -9.48,0 -16.64,-3.243 -21.73,-9.934 v -15.758 c 6.26,8.324 13.6,12.016 20.71,12.016 7.87,0 11.81,-3.692 11.81,-12.785 v -3.91 l -11.49,-4.559" />
        <path
           inkscape:connector-curvature="0"
           id="path4527"
           style="fill:#ffffff;fill-opacity:1;fill-rule:nonzero;stroke:none"
           d="m 3038.71,599.871 c 13.02,0 22.4,-10.199 22.4,-24.351 0,-15.75 -8.66,-25.481 -22.4,-25.481 -12.55,0 -21.18,10.25 -21.18,25.66 0,13.973 8.94,24.172 21.18,24.172 z m 0.16,-62.793 c 20.98,0 35.49,15.582 35.49,38.621 0,21.574 -14.92,37.192 -35.49,37.192 -19.61,0 -34.61,-16.25 -34.61,-37.192 0,-22.398 14.46,-38.621 34.61,-38.621" />
        <path
           inkscape:connector-curvature="0"
           id="path4529"
           style="fill:#ffffff;fill-opacity:1;fill-rule:nonzero;stroke:none"
           d="m 3168.69,538.5 v 96.441 h 34.5 v 14.289 h -83.23 v -14.289 h 34.45 V 538.5 h 14.28" />
        <path
           inkscape:connector-curvature="0"
           id="path4531"
           style="fill:#ffffff;fill-opacity:1;fill-rule:nonzero;stroke:none"
           d="m 3232.78,553.301 c -3.47,-3.75 -7.26,-6 -11.4,-6 -5.4,0 -9.34,4.211 -9.34,10.219 0,8.582 9.65,12.839 20.74,17.05 z m -11.5,24.66 c -10.52,-4.223 -22.34,-8.582 -22.34,-23.039 0,-9.422 6.44,-17.844 16.06,-17.844 5.97,0 11.96,2.442 17.68,7.461 1.13,-5.187 4.24,-7.461 9.93,-7.461 4.04,0 6.59,1.274 12.53,5.672 v 8.762 c -2.93,-2.461 -5.53,-3.91 -6.82,-3.91 -1.67,0 -2.5,0.976 -2.5,3.738 v 37.48 c 0,16.555 -10.57,24.071 -23.82,24.071 -9.55,0 -16.62,-3.243 -21.77,-9.934 v -15.758 c 6.28,8.324 13.64,12.016 20.74,12.016 7.87,0 11.81,-3.692 11.81,-12.785 v -3.91 l -11.5,-4.559" />
        <path
           inkscape:connector-curvature="0"
           id="path4533"
           style="fill:#ffffff;fill-opacity:1;fill-rule:nonzero;stroke:none"
           d="m 3374.19,538.5 v 45.762 c 0,17.207 -8.44,28.629 -21.71,28.629 -9.42,0 -16.27,-6.024 -21.95,-13.164 -4.43,8.57 -11.25,13.164 -19.58,13.164 -6.18,0 -12.46,-3.618 -19.12,-11.051 v 9.543 h -13.02 V 538.5 h 13.02 v 52.93 c 5.43,6.961 9.78,9.273 16.36,9.273 6.44,0 11.81,-5.043 11.81,-16.902 V 538.5 h 12.95 v 52.93 c 4.7,5.379 10.42,9.418 14.61,9.273 7.51,0 13.66,-6.019 13.66,-17.031 V 538.5 h 12.97" />
        <path
           inkscape:connector-curvature="0"
           id="path4535"
           style="fill:#ffffff;fill-opacity:1;fill-rule:nonzero;stroke:none"
           d="m 3433.24,553.301 c -3.53,-3.75 -7.31,-6 -11.45,-6 -5.38,0 -9.26,4.211 -9.26,10.219 0,8.582 9.62,12.839 20.71,17.05 z m -11.6,24.66 c -10.48,-4.223 -22.29,-8.582 -22.29,-23.039 0,-9.422 6.39,-17.844 16.06,-17.844 6.02,0 11.96,2.442 17.73,7.461 1.08,-5.187 4.19,-7.461 9.88,-7.461 4.04,0 6.58,1.274 12.55,5.672 v 8.762 c -2.95,-2.461 -5.56,-3.91 -6.89,-3.91 -1.62,0 -2.45,0.976 -2.45,3.738 v 37.48 c 0,16.555 -10.57,24.071 -23.82,24.071 -9.42,0 -16.67,-3.243 -21.74,-9.934 v -15.758 c 6.25,8.324 13.55,12.016 20.76,12.016 7.82,0 11.81,-3.692 11.81,-12.785 v -3.91 l -11.6,-4.559" />
        <path
           inkscape:connector-curvature="0"
           id="path4537"
           style="fill:#ffffff;fill-opacity:1;fill-rule:nonzero;stroke:none"
           d="m 3522.29,611.383 -29.02,-35.684 32.8,-37.199 h 17.6 l -33.88,37.199 28.04,35.684 h -15.54" />
        <path
           inkscape:connector-curvature="0"
           id="path4539"
           style="fill:#ffffff;fill-opacity:1;fill-rule:nonzero;stroke:none"
           d="m 3492.7,538.5 v 110.73 h -12.99 V 538.5 h 12.99" />
        <path
           inkscape:connector-curvature="0"
           id="path4541"
           style="fill:#ffffff;fill-opacity:1;fill-rule:nonzero;stroke:none"
           d="m 3569.38,642.09 c -4.25,0 -7.77,-3.91 -7.77,-8.617 0,-4.696 3.52,-8.61 7.77,-8.61 4.19,0 7.72,3.914 7.72,8.61 0,4.707 -3.53,8.617 -7.72,8.617" />
        <path
           inkscape:connector-curvature="0"
           id="path4543"
           style="fill:#ffffff;fill-opacity:1;fill-rule:nonzero;stroke:none"
           d="m 3562.79,538.5 h 12.99 v 72.883 h -12.99 V 538.5" />
        <path
           inkscape:connector-curvature="0"
           id="path4545"
           style="fill:#ffffff;fill-opacity:1;fill-rule:nonzero;stroke:none"
           d="m 3754.86,538.5 v 110.73 h -13.25 l -33.17,-45.46 -33.03,45.46 h -13.43 V 538.5 h 14.3 v 86.172 h 0.31 l 30.62,-42.813 h 2.44 l 30.6,42.813 h 0.25 V 538.5 h 14.36" />
        <path
           inkscape:connector-curvature="0"
           id="path4547"
           style="fill:#ffffff;fill-opacity:1;fill-rule:nonzero;stroke:none"
           d="m 3815.74,553.301 c -3.48,-3.75 -7.26,-6 -11.4,-6 -5.35,0 -9.34,4.211 -9.34,10.219 0,8.582 9.65,12.839 20.74,17.05 z m -11.56,24.66 c -10.47,-4.223 -22.33,-8.582 -22.33,-23.039 0,-9.422 6.48,-17.844 16.11,-17.844 5.97,0 11.96,2.442 17.62,7.461 1.19,-5.187 4.3,-7.461 9.93,-7.461 4.15,0 6.64,1.274 12.59,5.672 v 8.762 c -2.94,-2.461 -5.53,-3.91 -6.82,-3.91 -1.62,0 -2.5,0.976 -2.5,3.738 v 37.48 c 0,16.555 -10.52,24.071 -23.82,24.071 -9.55,0 -16.63,-3.243 -21.77,-9.934 v -15.758 c 6.28,8.324 13.59,12.016 20.74,12.016 7.92,0 11.81,-3.692 11.81,-12.785 v -3.91 l -11.56,-4.559" />
        <path
           inkscape:connector-curvature="0"
           id="path4549"
           style="fill:#ffffff;fill-opacity:1;fill-rule:nonzero;stroke:none"
           d="m 3904.86,611.383 -29.04,-35.684 32.88,-37.199 h 17.47 l -33.84,37.199 27.97,35.684 h -15.44" />
        <path
           inkscape:connector-curvature="0"
           id="path4551"
           style="fill:#ffffff;fill-opacity:1;fill-rule:nonzero;stroke:none"
           d="m 3875.25,538.5 v 110.73 h -13.04 V 538.5 h 13.04" />
        <path
           inkscape:connector-curvature="0"
           id="path4553"
           style="fill:#ffffff;fill-opacity:1;fill-rule:nonzero;stroke:none"
           d="m 3973.51,553.301 c -3.52,-3.75 -7.31,-6 -11.4,-6 -5.38,0 -9.36,4.211 -9.36,10.219 0,8.582 9.62,12.839 20.76,17.05 z m -32.57,49.656 v -15.758 c 6.25,8.324 13.61,12.016 20.76,12.016 7.88,0 11.81,-3.692 11.81,-12.785 v -3.91 l -11.55,-4.559 c -10.52,-4.223 -22.39,-8.582 -22.39,-23.039 0,-9.422 6.49,-17.844 16.11,-17.844 6.02,0 11.96,2.442 17.68,7.461 1.13,-5.187 4.24,-7.461 9.93,-7.461 4.06,0 6.59,1.274 12.55,5.672 v 8.762 c -2.9,-2.461 -5.55,-3.91 -6.89,-3.91 -1.6,0 -2.45,0.976 -2.45,3.738 v 37.48 c 0,16.555 -10.55,24.071 -23.82,24.071 -9.47,0 -16.62,-3.243 -21.74,-9.934" />
        <path
           inkscape:connector-curvature="0"
           id="path4555"
           style="fill:#ffffff;fill-opacity:1;fill-rule:nonzero;stroke:none"
           d="m 4074.73,538.5 v 72.883 h -13.02 v -52.074 c -4.19,-6.649 -9.78,-10.258 -15.64,-10.258 -8.85,0 -13.41,5.871 -13.41,16.058 v 46.274 h -12.99 v -45.281 c 0,-18.5 9.31,-29.024 22.64,-29.024 6.41,0 14.02,4.184 19.4,10.703 V 538.5 h 13.02" />
        <path
           inkscape:connector-curvature="0"
           id="path4557"
           style="fill:#ffffff;fill-opacity:1;fill-rule:nonzero;stroke:none"
           d="M 4106.74,611.383 V 538.5 h 13.04 v 38.16 c 0,12.52 7,22.387 15.96,22.387 3.01,0 8.15,-2.922 12.09,-7.102 l 6.82,12.481 c -5.38,5.683 -10.34,8.465 -15.65,8.465 -6.09,0 -12.37,-5.403 -18.96,-18.207 h -0.26 v 16.699 h -13.04" />
        <path
           inkscape:connector-curvature="0"
           id="path4559"
           style="fill:#ffffff;fill-opacity:1;fill-rule:nonzero;stroke:none"
           d="m 4204.95,553.301 c -3.52,-3.75 -7.31,-6 -11.35,-6 -5.43,0 -9.36,4.211 -9.36,10.219 0,8.582 9.62,12.839 20.71,17.05 z m -11.5,24.66 c -10.58,-4.223 -22.39,-8.582 -22.39,-23.039 0,-9.422 6.44,-17.844 16.09,-17.844 6.04,0 11.96,2.442 17.65,7.461 1.13,-5.187 4.24,-7.461 10,-7.461 3.99,0 6.51,1.274 12.48,5.672 v 8.762 c -2.9,-2.461 -5.55,-3.91 -6.84,-3.91 -1.65,0 -2.5,0.976 -2.5,3.738 v 37.48 c 0,16.555 -10.49,24.071 -23.77,24.071 -9.47,0 -16.67,-3.243 -21.74,-9.934 v -15.758 c 6.2,8.324 13.56,12.016 20.76,12.016 7.82,0 11.76,-3.692 11.76,-12.785 v -3.91 l -11.5,-4.559" />
        <path
           inkscape:connector-curvature="0"
           id="path4561"
           style="fill:#ffffff;fill-opacity:1;fill-rule:nonzero;stroke:none"
           d="m 4306.17,538.5 v 72.883 h -12.99 v -52.074 c -4.2,-6.649 -9.81,-10.258 -15.6,-10.258 -8.92,0 -13.48,5.871 -13.48,16.058 v 46.274 h -12.99 v -45.281 c 0,-18.5 9.31,-29.024 22.64,-29.024 6.46,0 14.02,4.184 19.43,10.703 V 538.5 h 12.99" />
        <path
           inkscape:connector-curvature="0"
           id="path4563"
           style="fill:#ffffff;fill-opacity:1;fill-rule:nonzero;stroke:none"
           d="m 2552.31,629.602 h -37.53 v -7.422 h 37.53 v 7.422" />
        <path
           inkscape:connector-curvature="0"
           id="path4565"
           style="fill:#ffffff;fill-opacity:1;fill-rule:nonzero;stroke:none"
           d="m 3202.47,622.18 h 37.59 v 7.422 h -37.59 v -7.422" />
        <path
           inkscape:connector-curvature="0"
           id="path4567"
           style="fill:#ffffff;fill-opacity:1;fill-rule:nonzero;stroke:none"
           d="m 2195.99,1177.06 h -76.05 v 53.25 h 71.18 v 31.86 h -71.18 v 51.4 h 73.73 v 31.82 h -105.6 v -200.15 l 107.92,-0.04 v 31.86" />
        <path
           inkscape:connector-curvature="0"
           id="path4569"
           style="fill:#ffffff;fill-opacity:1;fill-rule:nonzero;stroke:none"
           d="m 3116.61,1313.57 v 31.82 h -105.54 v -200.15 l 107.87,-0.04 v 31.86 h -76.1 v 53.25 h 71.27 v 31.86 h -71.27 v 51.4 h 73.77" />
        <path
           inkscape:connector-curvature="0"
           id="path4571"
           style="fill:#ffffff;fill-opacity:1;fill-rule:nonzero;stroke:none"
           d="m 1910.52,1229.41 h 91.02 v -84.17 h 31.91 v 200.15 h -31.91 v -84.21 h -91.02 v 84.21 h -31.91 v -200.15 h 31.91 v 84.17" />
        <path
           inkscape:connector-curvature="0"
           id="path4573"
           style="fill:#ffffff;fill-opacity:1;fill-rule:nonzero;stroke:none"
           d="m 2388.98,1142.66 c 26.13,0 46.53,7.63 60.58,22.63 13.15,14.06 20.14,34.62 20.14,59.33 v 120.77 h -31.91 v -115.94 c 0,-20.4 -2.93,-32.04 -10.05,-39.97 -4.87,-5.39 -16.29,-14.4 -38.28,-14.4 -14.19,0 -25.61,5 -34.97,15.26 -7.29,8.24 -9.53,16.95 -9.53,37.38 v 117.62 l -31.86,0.05 v -123.57 c 0,-25.31 8.15,-46.09 23.54,-60.15 13.5,-12.24 31.99,-19.01 52.34,-19.01" />
        <path
           inkscape:connector-curvature="0"
           id="path4575"
           style="fill:#ffffff;fill-opacity:1;fill-rule:nonzero;stroke:none"
           d="m 2683.51,1145.24 v 200.15 h -30.4 c 0,0 0,-138.62 0,-143.15 -2.8,3.58 -112.7,143.15 -112.7,143.15 h -24.97 v -200.15 h 30.31 c 0,0 0,137.71 0,142.24 2.89,-3.62 111.24,-142.24 111.24,-142.24 h 26.52" />
        <path
           inkscape:connector-curvature="0"
           id="path4577"
           style="fill:#ffffff;fill-opacity:1;fill-rule:nonzero;stroke:none"
           d="m 2971.23,1345.39 h -32.08 c 0,0 -48.25,-125.77 -49.71,-129.57 -1.47,3.8 -49.89,129.57 -49.89,129.57 h -32.34 l 77.91,-201.83 9.88,-0.04 76.23,201.87" />
        <path
           inkscape:connector-curvature="0"
           id="path4579"
           style="fill:#ffffff;fill-opacity:1;fill-rule:nonzero;stroke:none"
           d="m 3251.48,1288.17 c 0,-8.36 -2.28,-14.83 -6.72,-19.44 -5.09,-5.18 -13.24,-7.81 -24.02,-7.81 0,0 -11.21,0 -12.63,0 0,1.6 0,52.26 0,53.81 1.42,0 12.63,0 12.63,0 20.78,0 30.53,-8.19 30.74,-25.82 0,-0.3 0,-0.48 0,-0.74 z m 30.79,-142.93 h 38.2 l -5.26,8.02 c -10.52,16.13 -14.88,22.77 -21.82,35.31 -6.08,11.04 -12.29,22.47 -18.58,31.74 -5.61,8.19 -11,14.4 -16.86,19.49 16.86,9.52 26.17,26.51 26.17,48.03 0,17.37 -5.69,31.95 -16.47,42.08 -10.69,10.13 -25.91,15.48 -44.06,15.48 H 3176.2 V 1145.2 l 31.91,0.04 c 0,0 0,82.35 0,83.9 1.25,0 7.03,0 7.03,0 10.9,0 20.39,-3.05 43.2,-42.5 l 23.93,-41.4" />
        <path
           inkscape:connector-curvature="0"
           id="path4581"
           style="fill:#ffffff;fill-opacity:1;fill-rule:nonzero;stroke:none"
           d="m 3399.89,1313.57 c 13.36,0 26.3,-6.43 38.29,-19.06 l 4.57,-4.83 1.42,-1.47 v 41.83 l -0.39,0.26 -1.03,0.82 c -12.64,9.31 -26.74,14.27 -40.88,14.27 -16.55,0 -30.7,-5.22 -40.7,-15.01 -10.09,-9.83 -15.44,-23.71 -15.44,-40.05 0,-27.72 19.28,-43.08 39.11,-56.44 l 4.83,-3.28 8.88,-6.12 c 5.13,-3.67 8.71,-6.6 11.64,-9.49 7.38,-7.11 10.78,-14.14 10.78,-22.11 0,-8.11 -6.81,-21 -24.96,-21 -15.7,0 -31.05,9.44 -43.03,26.6 l -4.79,6.81 -1.51,2.16 0.99,-48.46 0.26,-0.26 c 15.22,-12.72 31.35,-18.67 50.88,-18.67 14.57,0 27.85,5.69 37.47,15.99 9.44,10.22 14.75,24.37 14.75,39.93 0,32.9 -20.27,48.72 -39.24,61.05 l -13.8,8.71 c -4.96,3.23 -8.67,5.95 -11.64,8.5 -7.37,6.38 -10.61,12.46 -10.61,19.79 0,11.51 9.96,19.53 24.15,19.53" />
        <path
           inkscape:connector-curvature="0"
           id="path4583"
           style="fill:#ffffff;fill-opacity:1;fill-rule:nonzero;stroke:none"
           d="m 3810.31,1145.16 h 31.87 c 0,0 0,103.91 0,104.47 0.3,0.43 67.77,95.76 67.77,95.76 h -38.54 c 0,0 -44.11,-62.22 -45.36,-64.07 -1.29,1.85 -44.93,64.02 -44.93,64.02 l -38.59,0.05 c 0,0 67.52,-95.07 67.78,-95.5 0,-0.52 0,-104.73 0,-104.73" />
        <path
           inkscape:connector-curvature="0"
           id="path4585"
           style="fill:#ffffff;fill-opacity:1;fill-rule:nonzero;stroke:none"
           d="m 2735.81,1345.39 v -200.15 h 31.82 v 200.15 h -31.82" />
        <path
           inkscape:connector-curvature="0"
           id="path4587"
           style="fill:#ffffff;fill-opacity:1;fill-rule:nonzero;stroke:none"
           d="m 3506.17,1345.39 v -200.15 h 31.91 v 200.15 h -31.91" />
        <path
           inkscape:connector-curvature="0"
           id="path4589"
           style="fill:#ffffff;fill-opacity:1;fill-rule:nonzero;stroke:none"
           d="m 1761.04,1145.24 h 31.9 v 168.33 h 60.15 v 31.82 h -152.24 v -31.82 h 60.19 v -168.33" />
        <path
           inkscape:connector-curvature="0"
           id="path4591"
           style="fill:#ffffff;fill-opacity:1;fill-rule:nonzero;stroke:none"
           d="m 3638.71,1145.24 h 31.82 v 168.33 h 60.19 v 31.82 h -152.24 v -31.82 h 60.23 v -168.33" />
        <path
           inkscape:connector-curvature="0"
           id="path4593"
           style="fill:#ffffff;fill-opacity:1;fill-rule:nonzero;stroke:none"
           d="m 4233.98,1236.43 h 67 v 31.35 h -67 V 1314 h 67 v 31.39 h -98.52 v -197.73 h 31.52 v 88.77" />
        <path
           inkscape:connector-curvature="0"
           id="path4595"
           style="fill:#ffffff;fill-opacity:1;fill-rule:nonzero;stroke:none"
           d="m 4024.03,1293.81 c 11.58,12.6 27.64,19.55 45.23,19.55 36.89,0 63.6,-29.18 63.6,-69.39 0,-19.34 -6.44,-37.06 -18.15,-49.75 -11.63,-12.69 -27.81,-19.63 -45.45,-19.63 -17.5,0 -33.61,6.94 -45.23,19.63 -11.72,12.74 -18.11,30.41 -18.11,49.75 0,19.42 6.39,37.14 18.11,49.84 z m 44.72,-151.26 c 28.54,0 53.07,10.69 70.88,30.84 16.44,18.66 25.51,43.66 25.51,70.58 0,27.35 -9.2,52.65 -25.85,71.22 -17.68,19.72 -41.96,30.2 -70.03,30.2 -27.26,0 -51.92,-10.78 -69.51,-30.33 -16.83,-18.7 -26.07,-43.95 -26.07,-71.09 0,-26.83 9.07,-51.92 25.6,-70.67 17.46,-19.8 42.17,-30.75 69.47,-30.75" />
        <path
           inkscape:connector-curvature="0"
           id="path4597"
           style="fill:#ffffff;fill-opacity:1;fill-rule:nonzero;stroke:none"
           d="m 3404.69,874.973 c 1.32,3.511 33.74,90.675 35.93,96.894 2.57,-6.144 37.55,-93.308 38.79,-96.894 -3.66,0 -70.98,0 -74.72,0 z m 55.4,191.087 h -37.91 L 3290.74,724.355 h 55.92 c 0,0 36.51,94.997 37.17,96.68 1.91,0 115.86,0 117.76,0 0.66,-1.683 39.23,-96.68 39.23,-96.68 h 55.98 l -136.71,341.705" />
        <path
           inkscape:connector-curvature="0"
           id="path4599"
           style="fill:#ffffff;fill-opacity:1;fill-rule:nonzero;stroke:none"
           d="m 3243.39,778.371 h -133.48 v 285.719 h -54.09 V 724.355 h 187.57 v 54.016" />
        <path
           inkscape:connector-curvature="0"
           id="path4601"
           style="fill:#ffffff;fill-opacity:1;fill-rule:nonzero;stroke:none"
           d="m 1849.74,971.867 c 2.42,-6.144 37.32,-93.308 38.71,-96.894 -3.73,0 -71.06,0 -74.65,0 1.18,3.511 33.6,90.675 35.94,96.894 z M 1792.8,821.035 c 1.91,0 115.92,0 117.68,0 0.66,-1.683 39.45,-96.68 39.45,-96.68 h 55.84 l -136.64,341.705 h -37.98 L 1699.71,724.355 h 55.99 c 0,0 36.52,94.997 37.1,96.68" />
        <path
           inkscape:connector-curvature="0"
           id="path4603"
           style="fill:#ffffff;fill-opacity:1;fill-rule:nonzero;stroke:none"
           d="m 2650.75,751.367 v 66.227 l -2.27,-1.535 -7.1,-5.051 c -32.06,-23.27 -67.41,-36.004 -99.54,-36.004 -33.15,0 -61.54,11.269 -82.18,32.859 -20.64,21.442 -31.4,51.231 -31.4,85.848 0,33.516 11.27,63.961 31.91,85.844 20.57,21.885 48.89,33.885 79.85,33.885 32.78,0 63.23,-10.32 98.65,-33.155 l 6.88,-4.465 2.27,-1.465 -2.64,66.165 -0.88,0.36 c -41.42,19.32 -72.45,27.59 -103.77,27.59 -97.12,0 -167.67,-75.302 -167.67,-179.079 0,-38.934 14.64,-80.504 39.3,-111.243 21.37,-26.566 60.45,-58.179 125.73,-58.179 51.75,0 84.46,14.929 112.12,31.031 l 0.74,0.367" />
        <path
           inkscape:connector-curvature="0"
           id="path4605"
           style="fill:#ffffff;fill-opacity:1;fill-rule:nonzero;stroke:none"
           d="m 2836.71,903.148 c 1.53,1.832 133.27,160.942 133.27,160.942 h -68.14 c 0,0 -110.87,-134.082 -115.48,-139.719 0,7.246 0,139.719 0,139.719 h -54.09 V 724.355 h 54.09 c 0,0 0,146.297 0,153.106 4.53,-4.973 141.83,-153.106 141.83,-153.106 h 74.21 c 0,0 -164.08,177.04 -165.69,178.793" />
        <path
           inkscape:connector-curvature="0"
           id="path4607"
           style="fill:#ffffff;fill-opacity:1;fill-rule:nonzero;stroke:none"
           d="m 4150.44,778.371 c 0,0 -59.06,0 -61.69,0 0,2.703 0,228.989 0,231.769 2.63,0 59.57,0 59.57,0 36.74,0 66.74,-11.925 86.72,-34.245 18.15,-20.274 27.81,-48.524 27.81,-81.672 0,-43.035 -23.78,-115.852 -112.41,-115.852 z m 128.73,230.609 c -29.49,36.07 -72.3,55.11 -123.9,55.11 h -120.6 V 724.355 h 121.04 c 47.57,0 88.85,18.153 119.22,52.407 27.44,31.101 43.25,73.914 43.25,117.461 0,42.593 -14.19,84.527 -39.01,114.757" />
        <path
           inkscape:connector-curvature="0"
           id="path4609"
           style="fill:#ffffff;fill-opacity:1;fill-rule:nonzero;stroke:none"
           d="m 2172.78,719.969 c 44.49,0 78.96,12.953 102.82,38.347 22.39,23.934 34.18,58.696 34.18,100.778 v 204.916 h -54.09 V 867.215 c 0,-34.617 -4.97,-54.231 -17.12,-67.766 -8.27,-9.078 -27.59,-24.445 -64.92,-24.445 -24.15,0 -43.61,8.414 -59.35,25.906 -12.37,13.906 -16.24,28.688 -16.24,63.524 v 199.576 l -54.01,0.08 V 854.188 c 0,-42.883 13.83,-78.161 39.95,-102.02 22.84,-20.711 54.31,-32.199 88.78,-32.199" />
        <path
           inkscape:connector-curvature="0"
           id="path4611"
           style="fill:#ffffff;fill-opacity:1;fill-rule:nonzero;stroke:none"
           d="m 3894.52,821.035 c -4.83,6.074 -191.31,242.975 -191.31,242.975 l -42.45,0.08 V 724.355 h 51.45 c 0,0 0,233.684 0,241.368 4.83,-6.149 188.89,-241.438 188.89,-241.438 h 45.01 v 339.725 h -51.59 c 0,0 0,-235.287 0,-242.975" />
        <path
           inkscape:connector-curvature="0"
           id="path4613"
           style="fill:#ffffff;fill-opacity:1;fill-rule:nonzero;stroke:none"
           d="m 1808.96,284.719 -82.34,96.722 h -23.51 V 242.852 h 26.19 v 98.32 l 82.83,-98.32 h 23.01 v 138.589 h -26.18 v -96.722" />
        <path
           inkscape:connector-curvature="0"
           id="path4615"
           style="fill:#ffffff;fill-opacity:1;fill-rule:nonzero;stroke:none"
           d="m 2002.09,303.172 h 60.12 v 20.93 h -60.12 v 36.41 h 62.8 v 20.929 h -89.58 V 242.852 h 90.97 v 20.929 h -64.19 v 39.391" />
        <path
           inkscape:connector-curvature="0"
           id="path4617"
           style="fill:#ffffff;fill-opacity:1;fill-rule:nonzero;stroke:none"
           d="m 2344.13,295.629 -36.5,85.812 h -22.62 l -36.3,-85.519 -34.53,85.519 h -27.68 l 57.14,-140.371 h 8.73 l 43.85,102.782 43.65,-102.782 h 9.02 l 57.04,140.371 h -27.37 l -34.43,-85.812" />
        <path
           inkscape:connector-curvature="0"
           id="path4619"
           style="fill:#ffffff;fill-opacity:1;fill-rule:nonzero;stroke:none"
           d="m 2811.85,381.441 h -121.91 v -20.929 h 75.78 l -80.64,-117.66 h 127.17 v 20.929 h -81.15 l 80.75,117.66" />
        <path
           inkscape:connector-curvature="0"
           id="path4621"
           style="fill:#ffffff;fill-opacity:1;fill-rule:nonzero;stroke:none"
           d="m 2969.08,303.172 h 60.12 v 20.93 h -60.12 v 36.41 h 62.8 v 20.929 H 2942.3 V 242.852 h 90.97 v 20.929 h -64.19 v 39.391" />
        <path
           inkscape:connector-curvature="0"
           id="path4623"
           style="fill:#ffffff;fill-opacity:1;fill-rule:nonzero;stroke:none"
           d="m 3203.29,296.922 21.33,54.859 23.41,-54.859 z m 7.54,84.519 -57.14,-138.589 h 28.07 l 13.4,33.726 h 61.6 l 14.38,-33.726 h 28.28 l -61.21,138.589 h -27.38" />
        <path
           inkscape:connector-curvature="0"
           id="path4625"
           style="fill:#ffffff;fill-opacity:1;fill-rule:nonzero;stroke:none"
           d="m 3452.17,381.441 h -26.78 V 242.852 h 94.05 v 20.929 h -67.27 v 117.66" />
        <path
           inkscape:connector-curvature="0"
           id="path4627"
           style="fill:#ffffff;fill-opacity:1;fill-rule:nonzero;stroke:none"
           d="m 3682.82,296.922 21.32,54.859 23.41,-54.859 z m 7.53,84.519 -57.13,-138.589 h 28.07 l 13.39,33.726 h 61.6 l 14.38,-33.726 h 28.28 l -61.21,138.589 h -27.38" />
        <path
           inkscape:connector-curvature="0"
           id="path4629"
           style="fill:#ffffff;fill-opacity:1;fill-rule:nonzero;stroke:none"
           d="m 4010.77,284.719 -82.34,96.722 h -23.51 V 242.852 h 26.19 v 98.32 l 82.83,-98.32 h 23.01 v 138.589 h -26.18 v -96.722" />
        <path
           inkscape:connector-curvature="0"
           id="path4631"
           style="fill:#ffffff;fill-opacity:1;fill-rule:nonzero;stroke:none"
           d="m 4268.04,277.129 c -8.96,-8.899 -20.85,-13.348 -35.67,-13.348 h -28.47 v 96.731 h 27.59 c 15.27,0 27.42,-4.34 36.45,-13 9.03,-8.66 13.54,-20.473 13.54,-35.41 0,-14.422 -4.48,-26.082 -13.44,-34.973 z m 5.6,95.48 c -11.24,5.879 -24.07,8.832 -38.49,8.832 h -58.03 V 242.852 h 56.45 c 14.87,0 28.07,2.878 39.58,8.628 11.5,5.758 20.39,13.879 26.64,24.36 6.25,10.48 9.36,22.5 9.36,36.058 0,13.293 -3.1,25.262 -9.31,35.911 -6.22,10.652 -14.96,18.921 -26.2,24.8" />
        <path
           inkscape:connector-curvature="0"
           id="path4633"
           style="fill:#ffffff;fill-opacity:1;fill-rule:nonzero;stroke:none"
           d="M 1701.72,436.531 H 4315.35 V 451.77 H 1701.72 v -15.239" />
        <path
           inkscape:connector-curvature="0"
           id="path4635"
           style="fill:#ffffff;fill-opacity:1;fill-rule:nonzero;stroke:none"
           d="M 485.703,1343.59 V 854.418 c 0,-115.043 85.965,-449.609 478.527,-613.879 l 6.407,-2.68 6.41,2.68 C 1369.43,404.75 1455.35,739.344 1455.35,854.418 V 1343.59 H 485.703" />
        <path
           inkscape:connector-curvature="0"
           id="path4637"
           style="fill:#10427a;fill-opacity:1;fill-rule:nonzero;stroke:none"
           d="m 589.922,1019.63 -0.027,-0.02 -3.012,1.54 c -22.25,13.09 -47.711,20 -73.637,20 -2.207,0 -3.355,-0.11 -4.801,-0.26 l -1.457,-0.14 V 854.418 c 0,-3.988 12.633,-403.688 463.649,-593.488 450.793,189.711 463.423,589.5 463.423,593.488 v 186.102 c -2.01,0.11 -4.1,0.15 -6.2,0.15 -25.97,0 -51.44,-6.92 -73.7,-20.01 -47.33,-27.926 -109.58,-28.012 -157.1,-0.11 -44.88,26.56 -103.32,26.49 -147.77,0.26 l -1.32,-0.65 c -47.18,-27.301 -108.892,-27.144 -155.943,0.53 l -0.82,0.58 c -44.316,25.94 -102.605,25.88 -146.93,-0.19 l -2.125,-1.26 -0.179,0.09 c -46.114,-26.168 -105.746,-26.262 -152.051,-0.28" />
        <path
           inkscape:connector-curvature="0"
           id="path4639"
           style="fill:#10427a;fill-opacity:1;fill-rule:nonzero;stroke:none"
           d="m 642.16,1256.46 c 17.02,20.01 39.195,22.1 49.379,22.59 71.93,2.24 108.441,-51.66 106.836,-94.74 -1.832,-49.16 -39.062,-60.62 -44.117,-62.03 0,0 -0.637,-10.67 7.715,-25.02 0.523,-1.04 2.14,-2.31 0.578,-5.07 -0.27,-0.6 -1.66,-3.25 -2.078,-3.75 -0.297,-0.47 -0.985,-2.01 -0.43,-3.86 0.875,-3.17 -0.313,-7.01 -2.699,-11.4 -1.805,-3.98 0.297,-13.95 1.308,-20.68 0.161,-1.42 -0.82,-1.47 -1.711,-0.45 -4.597,2.94 -8.093,12.13 -9.296,17.22 -8.696,-2.29 -18.786,-15.14 -22.211,-22.64 -0.286,-1.07 -2.161,-2.17 -2.469,0.19 -0.137,0.59 -1.863,15.04 12.086,25.54 -7.071,2.24 -14.434,-1.2 -19.399,-3.91 -0.363,-0.35 -2.453,-1.28 -0.886,0.99 0.308,0.5 4.355,9.67 23.035,12.31 0.242,0.65 4.156,6.8 5.789,11.55 -0.5,7 -4.129,15.78 -8.539,23.95 -0.688,-0.04 -14.004,-1.16 -23.391,-8.4 -0.621,-0.38 -1.793,-1.62 -1.793,-3.47 0,-1.84 0,-4.02 0,-4.02 0.137,-0.56 -0.715,-4.29 -5.504,-5.82 -0.418,-0.4 -16.199,-5.39 -23.711,-8.95 -0.39,-0.33 -7.148,-3.28 -12.109,-10.26 -1.055,-1.12 -5.02,-7.27 -10.777,-9.16 -1.391,-0.31 -4.508,-1.75 -6.692,-3.98 -2.238,-2.22 -4.25,-4.45 -6.148,-5.64 -1.903,-1.19 -6.141,-5.79 -9.199,-12.12 -0.5,-0.88 -1.403,-2.04 -1.457,0 -0.161,2.59 0.175,5.88 0.054,5.93 1.821,7.96 5.461,12.01 8.59,15.5 -1.226,0.35 -1.039,0.12 -2.332,0.82 -5.785,-0.7 -23.793,0.93 -34.598,-4.34 -0.808,-0.42 -1.671,-0.29 -0.808,0.86 1.984,2.73 6.031,13.19 30.359,13.75 0.285,2.3 -10.867,7.75 -16.535,7.75 -1.777,0 -0.715,0.99 0,1.27 1.281,0.58 11.992,5.19 24.684,-3.06 0.527,0.38 9.093,3.48 13.972,3.88 5.867,4.37 18.899,17.44 24.145,19.49 -0.11,0.77 -0.5,3.56 0.133,6.37 l -0.633,0.15 c -6.824,9.63 -7.852,23.83 -7.567,31.66 -13.945,1.31 -28.929,13.79 -36.886,23.91 -10.106,0.67 -30.27,9.31 -41.032,31.09 -36.753,-26.43 -60.64,-73.44 -61.992,-75.61 -0.859,-0.68 -1.332,-0.68 -1.98,-0.18 -4.047,7.29 -4.844,18.45 -3.492,21.93 7.148,19.44 24.086,46.2 42.527,69.97 -6.988,40.04 29.898,53.33 44.184,52.84 14.89,-0.33 25.25,-9.97 27.097,-12.95 v 0" />
        <path
           inkscape:connector-curvature="0"
           id="path4641"
           style="fill:#ffffff;fill-opacity:1;fill-rule:nonzero;stroke:none"
           d="m 593.375,1219.81 c -3.293,0 -5.934,2.69 -5.934,5.99 0,3.31 2.641,5.99 5.934,5.99 3.305,0 5.988,-2.68 5.988,-5.99 0,-3.3 -2.683,-5.99 -5.988,-5.99 z m 120.688,30.82 c 0,0 -0.864,0 -0.11,0.66 0.84,2.1 8.27,5.32 13.125,5.65 -21.512,8.57 -35.539,-1.9 -35.16,-0.73 l -0.18,0.73 c 0,0 2.918,4.91 10.008,9.82 -19.945,0 -30.101,-10.64 -30.101,-10.64 l -0.055,1.47 c 0,0 1.348,4.09 7.726,10.17 -22.519,-0.69 -40.054,-29.26 -40.054,-29.26 0,0 -3.914,20.44 -23.512,20.44 -14.309,2.17 -46.383,-17.46 -34.07,-44.01 -5.692,-10.62 -24.52,-27.07 -40.571,-60.34 -0.347,-0.71 0.352,-0.46 0,-1.16 14.489,20.6 35.407,47.03 56.704,59.98 2.144,-1.66 14.417,-33.57 42.675,-35.38 3.196,-2.32 17.278,-25.92 42.375,-23.6 0.301,-2.65 0.274,-25.35 4.575,-32.73 l 1.078,-1.34 c -0.094,0.69 0.164,0.09 0.164,0.09 2.008,2.22 16.199,12.53 27.933,16.36 0,0 5.059,15.62 8.469,19.6 24.41,5.61 36.969,24.91 37.711,43.55 0.512,25.93 -22.727,54.02 -48.73,50.67" />
        <path
           inkscape:connector-curvature="0"
           id="path4643"
           style="fill:#10427a;fill-opacity:1;fill-rule:nonzero;stroke:none"
           d="m 945.902,1256.46 c 16.996,20.01 39.207,22.1 49.368,22.59 71.93,2.24 108.48,-51.66 106.81,-94.74 -1.81,-49.16 -39.04,-60.62 -44.11,-62.03 0,0 -0.59,-10.67 7.72,-25.02 0.54,-1.04 2.15,-2.31 0.59,-5.07 -0.22,-0.6 -1.67,-3.25 -2.05,-3.75 -0.38,-0.47 -1,-2.01 -0.49,-3.86 0.92,-3.17 -0.32,-7.01 -2.64,-11.4 -1.83,-3.98 0.27,-13.95 1.24,-20.68 0.24,-1.42 -0.81,-1.47 -1.67,-0.45 -4.56,2.94 -8.09,12.13 -9.23,17.22 -8.79,-2.29 -18.88,-15.14 -22.28,-22.64 -0.32,-1.07 -2.16,-2.17 -2.52,0.19 -0.14,0.59 -1.85,15.04 12.15,25.54 -7.09,2.24 -14.43,-1.2 -19.43,-3.91 -0.37,-0.35 -2.46,-1.28 -0.87,0.99 0.3,0.5 4.36,9.67 23.03,12.31 0.24,0.65 4.12,6.8 5.8,11.55 -0.46,7 -4.13,15.78 -8.53,23.95 -0.73,-0.04 -14,-1.16 -23.41,-8.4 -0.6,-0.38 -1.81,-1.62 -1.81,-3.47 0,-1.84 0,-4.02 0,-4.02 0.15,-0.56 -0.66,-4.29 -5.5,-5.82 -0.45,-0.4 -16.203,-5.39 -23.66,-8.95 -0.433,-0.33 -7.203,-3.28 -12.152,-10.26 -1.039,-1.12 -5.004,-7.27 -10.75,-9.16 -1.457,-0.31 -4.492,-1.75 -6.715,-3.98 -2.215,-2.22 -4.262,-4.45 -6.164,-5.64 -1.852,-1.19 -6.164,-5.79 -9.199,-12.12 -0.461,-0.88 -1.375,-2.04 -1.418,0 -0.231,2.59 0.121,5.88 0.043,5.93 1.847,7.96 5.488,12.01 8.617,15.5 -1.242,0.35 -1.094,0.12 -2.375,0.82 -5.731,-0.7 -23.766,0.93 -34.609,-4.34 -0.809,-0.42 -1.606,-0.29 -0.809,0.86 2.023,2.73 6.055,13.19 30.359,13.75 0.325,2.3 -10.855,7.75 -16.508,7.75 -1.742,0 -0.753,0.99 0,1.27 1.297,0.58 11.993,5.19 24.657,-3.06 0.566,0.38 9.117,3.48 13.945,3.88 5.922,4.37 18.938,17.44 24.145,19.49 -0.043,0.77 -0.473,3.56 0.214,6.37 l -0.687,0.15 c -6.742,9.63 -7.852,23.83 -7.566,31.66 -13.95,1.31 -28.891,13.79 -36.848,23.91 -10.156,0.67 -30.27,9.31 -41.059,31.09 -36.754,-26.43 -60.679,-73.44 -62.027,-75.61 -0.797,-0.68 -1.27,-0.68 -1.957,-0.18 -3.965,7.29 -4.828,18.45 -3.492,21.93 7.121,19.44 24.113,46.2 42.539,69.97 -6.961,40.04 29.914,53.33 44.226,52.84 14.836,-0.33 25.235,-9.97 27.082,-12.95 v 0" />
        <path
           inkscape:connector-curvature="0"
           id="path4645"
           style="fill:#ffffff;fill-opacity:1;fill-rule:nonzero;stroke:none"
           d="m 897.145,1219.81 c -3.348,0 -6.028,2.69 -6.028,5.99 0,3.31 2.68,5.99 6.028,5.99 3.277,0 5.96,-2.68 5.96,-5.99 0,-3.3 -2.683,-5.99 -5.96,-5.99 z m 120.605,30.82 c 0,0 -0.82,0 -0.11,0.66 0.85,2.1 8.37,5.32 13.17,5.65 -21.52,8.57 -35.54,-1.9 -35.165,-0.73 l -0.161,0.73 c 0,0 2.899,4.91 9.966,9.82 -19.973,0 -30.052,-10.64 -30.052,-10.64 l -0.117,1.47 c 0,0 1.36,4.09 7.727,10.17 -22.485,-0.69 -40.031,-29.26 -40.031,-29.26 0,0 -3.899,20.44 -23.524,20.44 -14.281,2.17 -46.344,-17.46 -34.043,-44.01 -5.719,-10.62 -24.523,-27.07 -40.527,-60.34 -0.367,-0.71 0.32,-0.46 0,-1.16 14.402,20.6 35.375,47.03 56.621,59.98 2.172,-1.66 14.469,-33.57 42.738,-35.38 3.145,-2.32 17.266,-25.92 42.324,-23.6 0.313,-2.65 0.286,-25.35 4.625,-32.73 l 1.071,-1.34 c -0.11,0.69 0.16,0.09 0.16,0.09 1.98,2.22 16.208,12.53 27.908,16.36 0,0 5.07,15.62 8.46,19.6 24.43,5.61 36.95,24.91 37.76,43.55 0.48,25.93 -22.79,54.02 -48.8,50.67" />
        <path
           inkscape:connector-curvature="0"
           id="path4647"
           style="fill:#10427a;fill-opacity:1;fill-rule:nonzero;stroke:none"
           d="m 1247.72,1256.46 c 17.1,20.01 39.27,22.1 49.36,22.59 72.03,2.24 108.5,-51.66 106.88,-94.74 -1.78,-49.16 -39.06,-60.62 -44.14,-62.03 0,0 -0.59,-10.67 7.72,-25.02 0.54,-1.04 2.21,-2.31 0.59,-5.07 -0.21,-0.6 -1.67,-3.25 -2.05,-3.75 -0.32,-0.47 -0.97,-2.01 -0.48,-3.86 0.92,-3.17 -0.27,-7.01 -2.65,-11.4 -1.77,-3.98 0.28,-13.95 1.24,-20.68 0.25,-1.42 -0.75,-1.47 -1.67,-0.45 -4.58,2.94 -8.09,12.13 -9.22,17.22 -8.74,-2.29 -18.89,-15.14 -22.26,-22.64 -0.35,-1.07 -2.18,-2.17 -2.48,0.19 -0.19,0.59 -1.86,15.04 12.09,25.54 -7.07,2.24 -14.44,-1.2 -19.45,-3.91 -0.33,-0.35 -2.43,-1.28 -0.86,0.99 0.34,0.5 4.37,9.67 23.09,12.31 0.21,0.65 4.12,6.8 5.71,11.55 -0.43,7 -4.04,15.78 -8.49,23.95 -0.68,-0.04 -14,-1.16 -23.39,-8.4 -0.62,-0.38 -1.84,-1.62 -1.84,-3.47 0,-1.84 0,-4.02 0,-4.02 0.17,-0.56 -0.64,-4.29 -5.44,-5.82 -0.44,-0.4 -16.22,-5.39 -23.74,-8.95 -0.38,-0.33 -7.15,-3.28 -12.09,-10.26 -1.08,-1.12 -5.07,-7.27 -10.76,-9.16 -1.46,-0.31 -4.51,-1.75 -6.72,-3.98 -2.21,-2.22 -4.26,-4.45 -6.15,-5.64 -1.91,-1.19 -6.15,-5.79 -9.22,-12.12 -0.49,-0.88 -1.35,-2.04 -1.41,0 -0.21,2.59 0.11,5.88 0.06,5.93 1.78,7.96 5.39,12.01 8.57,15.5 -1.24,0.35 -1.05,0.12 -2.34,0.82 -5.75,-0.7 -23.79,0.93 -34.61,-4.34 -0.81,-0.42 -1.62,-0.29 -0.81,0.86 2.02,2.73 6.04,13.19 30.38,13.75 0.35,2.3 -10.9,7.75 -16.57,7.75 -1.72,0 -0.67,0.99 0,1.27 1.3,0.58 12.03,5.19 24.66,-3.06 0.59,0.38 9.14,3.48 14,3.88 5.85,4.37 18.91,17.44 24.14,19.49 -0.05,0.77 -0.46,3.56 0.19,6.37 l -0.65,0.15 c -6.8,9.63 -7.85,23.83 -7.58,31.66 -13.97,1.31 -28.92,13.79 -36.85,23.91 -10.17,0.67 -30.26,9.31 -41.11,31.09 -36.68,-26.43 -60.64,-73.44 -61.93,-75.61 -0.87,-0.68 -1.38,-0.68 -2.05,-0.18 -3.97,7.29 -4.8,18.45 -3.48,21.93 7.15,19.44 24.09,46.2 42.56,69.97 -6.98,40.04 29.89,53.33 44.22,52.84 14.83,-0.33 25.25,-9.97 27.03,-12.95 v 0" />
        <path
           inkscape:connector-curvature="0"
           id="path4649"
           style="fill:#ffffff;fill-opacity:1;fill-rule:nonzero;stroke:none"
           d="m 1198.97,1219.81 c -3.29,0 -5.96,2.69 -5.96,5.99 0,3.31 2.67,5.99 5.96,5.99 3.32,0 5.99,-2.68 5.99,-5.99 0,-3.3 -2.67,-5.99 -5.99,-5.99 z m 120.66,30.82 c 0,0 -0.86,0 -0.1,0.66 0.81,2.1 8.33,5.32 13.16,5.65 -21.53,8.57 -35.61,-1.9 -35.18,-0.73 l -0.16,0.73 c 0,0 2.91,4.91 9.98,9.82 -19.96,0 -30.07,-10.64 -30.07,-10.64 l -0.06,1.47 c 0,0 1.27,4.09 7.69,10.17 -22.53,-0.69 -40.03,-29.26 -40.03,-29.26 0,0 -3.94,20.44 -23.55,20.44 -14.33,2.17 -46.35,-17.46 -34.02,-44.01 -5.72,-10.62 -24.55,-27.07 -40.57,-60.34 -0.32,-0.71 0.32,-0.46 0,-1.16 14.49,20.6 35.39,47.03 56.68,59.98 2.13,-1.66 14.43,-33.57 42.67,-35.38 3.16,-2.32 17.32,-25.92 42.41,-23.6 0.29,-2.65 0.24,-25.35 4.61,-32.73 l 1.02,-1.34 c -0.08,0.69 0.17,0.09 0.17,0.09 1.99,2.22 16.21,12.53 27.94,16.36 0,0 5.02,15.62 8.45,19.6 24.41,5.61 36.98,24.91 37.73,43.55 0.49,25.93 -22.76,54.02 -48.77,50.67" />
        <path
           inkscape:connector-curvature="0"
           id="path4651"
           style="fill:#ffffff;fill-opacity:1;fill-rule:nonzero;stroke:none"
           d="m 1008.59,556.02 -6.94,-4.668 7.4,-3.903 c 4.74,-2.508 7.69,-7.48 7.69,-12.969 0,-8.07 -6.57,-14.64 -14.65,-14.64 h -63.137 c -8.066,0 -14.637,6.57 -14.637,14.64 0,5.481 2.954,10.45 7.704,12.969 l 7.355,3.91 -6.906,4.653 c -15.246,10.269 -32.438,15.398 -49.719,15.398 -17.258,0 -34.605,-5.129 -50.164,-15.371 -17.094,-11.301 -32.672,-15.301 -59.531,-15.301 -34.035,0 -61.469,10.024 -86.352,31.543 l -1.406,1.219 h -15.809 l -1.496,-1.789 c -2.222,-2.641 -5.562,-4.152 -9.156,-4.152 -6.406,0 -11.621,4.82 -11.621,10.75 0,5.921 5.215,10.742 11.621,10.742 3.605,0 6.953,-1.551 9.176,-4.25 l 1.5,-1.821 h 18.918 v 23.04 h -18.887 l -1.496,-1.782 c -2.231,-2.644 -5.567,-4.168 -9.156,-4.168 -6.407,0 -11.621,4.828 -11.621,10.762 0,5.926 5.214,10.75 11.621,10.75 3.629,0 6.984,-1.547 9.203,-4.242 l 1.5,-1.82 h 18.836 v 23.039 h -18.817 l -1.5,-1.793 c -2.207,-2.649 -5.55,-4.172 -9.172,-4.172 -6.39,0 -11.589,4.824 -11.589,10.746 0,5.937 5.199,10.765 11.589,10.765 3.653,0 6.926,-1.519 9.219,-4.285 l 1.5,-1.804 h 18.77 v 23.039 h -18.711 l -1.496,-1.766 c -2.254,-2.656 -5.59,-4.184 -9.168,-4.184 -6.407,0 -11.621,4.829 -11.621,10.762 0,5.926 5.214,10.75 11.621,10.75 3.605,0 6.953,-1.551 9.175,-4.258 l 1.497,-1.816 h 18.703 v 23.035 h -18.676 l -1.5,-1.789 c -2.219,-2.652 -5.551,-4.172 -9.149,-4.172 -6.406,0 -11.617,4.832 -11.617,10.774 0,5.922 5.211,10.738 11.617,10.738 3.606,0 6.969,-1.555 9.231,-4.258 l 1.5,-1.793 h 18.594 v 23.027 h -18.567 l -1.496,-1.785 c -2.222,-2.644 -5.574,-4.164 -9.203,-4.164 -6.394,0 -11.594,4.824 -11.594,10.75 0,5.934 5.2,10.762 11.594,10.762 3.633,0 6.996,-1.559 9.227,-4.266 l 1.5,-1.82 h 18.539 v 23.023 h -18.555 l -1.5,-1.769 c -2.234,-2.648 -5.594,-4.168 -9.211,-4.168 -6.394,0 -11.594,4.824 -11.594,10.75 0,5.926 5.2,10.75 11.594,10.75 3.649,0 7.008,-1.543 9.231,-4.234 l 1.484,-1.793 14.723,-0.125 15.777,7.941 V 577.352 l 2.336,-4.223 c 43.285,-27.25 86.781,-30 125.785,-7.93 41.109,23.25 98.867,24.391 132.855,-25.058 h -16.109 c -2.758,0 -4.996,-2.243 -4.996,-5 0,-2.762 2.238,-4.993 4.996,-4.993 h 50.719 c 2.758,0 4.995,2.231 4.995,4.993 0,2.757 -2.237,5 -4.995,5 h -16.211 c 34.536,50.25 92.466,45.449 133.036,24.941 35.91,-18.152 78,-15.523 125.13,7.789 l 2.78,4.481 v 208.605 l 15.79,-7.941 14.69,0.125 1.48,1.773 c 2.25,2.699 5.63,4.254 9.27,4.254 6.39,0 11.59,-4.824 11.59,-10.75 0,-5.926 -5.2,-10.75 -11.59,-10.75 -3.61,0 -6.99,1.523 -9.26,4.187 l -1.49,1.75 h -18.53 v -23.023 h 18.52 l 1.5,1.805 c 2.25,2.718 5.63,4.281 9.26,4.281 6.39,0 11.59,-4.828 11.59,-10.762 0,-5.926 -5.2,-10.75 -11.59,-10.75 -3.62,0 -6.99,1.528 -9.25,4.188 l -1.49,1.761 h -18.54 v -23.027 h 18.64 l 1.5,1.82 c 2.21,2.688 5.55,4.231 9.17,4.231 6.4,0 11.6,-4.816 11.6,-10.738 0,-5.942 -5.2,-10.774 -11.6,-10.774 -3.55,0 -6.96,1.555 -9.13,4.168 l -1.5,1.793 h -18.68 v -23.035 h 18.69 l 1.5,1.809 c 2.24,2.707 5.6,4.265 9.22,4.265 6.4,0 11.59,-4.824 11.59,-10.75 0,-5.933 -5.19,-10.762 -11.59,-10.762 -3.61,0 -6.96,1.524 -9.2,4.18 l -1.5,1.77 h -18.71 v -23.039 h 18.74 l 1.5,1.808 c 2.25,2.723 5.61,4.281 9.22,4.281 6.38,0 11.57,-4.828 11.57,-10.765 0,-5.922 -5.19,-10.746 -11.57,-10.746 -3.62,0 -6.96,1.523 -9.18,4.176 l -1.5,1.789 h -18.78 V 615.52 h 18.86 l 1.5,1.816 c 2.25,2.738 5.52,4.246 9.18,4.246 6.39,0 11.6,-4.824 11.6,-10.75 0,-5.934 -5.21,-10.762 -11.6,-10.762 -3.59,0 -6.94,1.524 -9.17,4.172 l -1.49,1.778 h -18.88 v -23.04 h 18.91 l 1.49,1.821 c 2.23,2.699 5.58,4.25 9.17,4.25 6.41,0 11.62,-4.821 11.62,-10.742 0,-5.93 -5.21,-10.75 -11.62,-10.75 -3.54,0 -6.9,1.531 -9.21,4.211 l -1.49,1.73 h -15.73 l -1.41,-1.219 c -24.89,-21.519 -52.34,-31.543 -86.35,-31.543 -26.86,0 -42.44,4 -59.58,15.301 -31.06,20.492 -69.32,20.492 -99.86,-0.019" />
        <path
           inkscape:connector-curvature="0"
           id="path4653"
           style="fill:#ffffff;fill-opacity:1;fill-rule:nonzero;stroke:none"
           d="m 723.602,584.551 c 32.113,-17.02 58.484,-21.621 105.804,2.949 51.918,26.977 105.407,9.313 136.149,-20.469 V 551.34 c -37.844,49.027 -98.45,47.168 -141.977,22.551 -34.91,-19.743 -73.996,-17.559 -113.207,6.25 v 210.843 l 10.574,5.321 V 585.961 l 2.657,-1.41" />
        <path
           inkscape:connector-curvature="0"
           id="path4655"
           style="fill:#ffffff;fill-opacity:1;fill-rule:nonzero;stroke:none"
           d="m 730.934,592 v 209.336 l 1.308,0.66 c 36.098,-8.348 63.344,-5.617 99.86,9.832 44.168,18.68 89.05,12.723 133.453,-17.691 V 580.449 c -21.461,17.871 -50.84,30.379 -82.793,30.379 -18.793,0 -38.485,-4.332 -57.965,-14.449 -42.336,-21.981 -65.34,-19 -93.863,-4.379" />
        <path
           inkscape:connector-curvature="0"
           id="path4657"
           style="fill:#ffffff;fill-opacity:1;fill-rule:nonzero;stroke:none"
           d="m 1111.68,587.5 c 47.32,-24.551 73.68,-19.961 105.79,-2.949 l 2.66,1.41 v 210.344 l 10.56,-5.317 0.01,-210.508 c -43,-20.609 -81.14,-22.781 -113.39,-6.468 -42.78,21.617 -103.37,27.039 -141.763,-22.66 v 15.679 c 30.713,29.809 84.203,47.477 136.133,20.469" />
        <path
           inkscape:connector-curvature="0"
           id="path4659"
           style="fill:#ffffff;fill-opacity:1;fill-rule:nonzero;stroke:none"
           d="m 975.547,580.461 v 213.676 c 44.373,30.414 89.243,36.375 133.443,17.691 36.48,-15.449 63.73,-18.164 99.82,-9.832 l 1.31,-0.668 V 592 c -28.5,-14.609 -51.51,-17.602 -93.82,4.379 -52.68,27.344 -106.71,12.473 -140.753,-15.918" />
        <path
           inkscape:connector-curvature="0"
           id="path4661"
           style="fill:#ffffff;fill-opacity:1;fill-rule:nonzero;stroke:none"
           d="m 1212.34,839.703 -56.51,42.68 -56.53,-42.688 21.66,68.176 -59.54,42.906 h 72.53 l 21.88,68.583 21.88,-68.583 h 72.55 l -59.54,-42.914 21.62,-68.16" />
        <path
           inkscape:connector-curvature="0"
           id="path4663"
           style="fill:#ffffff;fill-opacity:1;fill-rule:nonzero;stroke:none"
           d="m 841.5,839.098 -56.539,42.73 -56.535,-42.734 21.668,68.187 -59.543,42.953 h 72.551 l 21.859,68.576 21.863,-68.576 h 72.571 L 819.848,907.281 841.5,839.098" />
        <path
           inkscape:connector-curvature="0"
           id="path4665"
           style="fill:#ffffff;fill-opacity:1;fill-rule:nonzero;stroke:none"
           d="m 913.961,304 21.668,68.18 -59.566,42.941 h 72.57 l 21.859,68.559 21.856,-68.559 h 72.562 L 1005.35,372.18 1027.01,304 970.492,346.711 913.961,304" />
        <path
           inkscape:connector-curvature="0"
           id="path4667"
           style="fill:none;stroke:#10427a;stroke-width:30;stroke-linecap:butt;stroke-linejoin:miter;stroke-miterlimit:4;stroke-dasharray:none;stroke-opacity:1"
           d="M 5416,1591.24 V 244.738" />
        <path
           inkscape:connector-curvature="0"
           id="path4669"
           style="fill:#009390;fill-opacity:1;fill-rule:nonzero;stroke:none"
           d="m 6106.14,848.918 h -93.99 v 245.302 l -67.91,-159.189 h -65.2 l -67.91,159.189 V 848.918 h -89.07 v 366.362 h 109.74 l 82.42,-183.8 82.18,183.8 h 109.74 V 848.918" />
        <path
           inkscape:connector-curvature="0"
           id="path4671"
           style="fill:#009390;fill-opacity:1;fill-rule:nonzero;stroke:none"
           d="m 6464.63,848.918 h -264.99 v 366.362 h 264.99 v -70.86 h -171 v -63.24 h 158.7 v -70.86 h -158.7 v -90.543 h 171 v -70.859" />
        <path
           inkscape:connector-curvature="0"
           id="path4673"
           style="fill:#009390;fill-opacity:1;fill-rule:nonzero;stroke:none"
           d="m 6792.36,1032.46 c 0,24.12 -4.39,44.75 -13.16,61.89 -8.78,17.14 -22.68,30.55 -41.71,40.22 -9.67,4.76 -19.56,8 -29.64,9.72 -10.09,1.73 -25.31,2.59 -45.65,2.59 h -23.86 V 917.563 h 23.86 c 22.48,0 38.96,1.027 49.46,3.074 10.5,2.051 20.75,5.785 30.76,11.195 17.22,9.844 29.85,23.008 37.89,39.492 8.03,16.485 12.05,36.866 12.05,61.136 z m 97.68,-0.73 c 0,-34.121 -7.79,-64.671 -23.37,-91.656 -15.58,-26.98 -35.27,-47.691 -59.05,-62.125 -17.88,-10.824 -37.48,-18.371 -58.81,-22.636 -21.32,-4.266 -46.58,-6.395 -75.78,-6.395 h -129.17 v 366.362 h 132.86 c 29.85,0 55.61,-2.5 77.26,-7.51 21.65,-5 39.86,-12.09 54.62,-21.28 25.26,-15.42 45.15,-36.21 59.67,-62.37 14.52,-26.16 21.77,-56.96 21.77,-92.39" />
        <path
           inkscape:connector-curvature="0"
           id="path4675"
           style="fill:#009390;fill-opacity:1;fill-rule:nonzero;stroke:none"
           d="m 7160.2,848.918 h -214.55 v 64.953 h 60.03 v 236.449 h -60.03 v 64.96 h 214.55 v -64.96 h -60.03 V 913.871 h 60.03 v -64.953" />
        <path
           inkscape:connector-curvature="0"
           id="path4677"
           style="fill:#009390;fill-opacity:1;fill-rule:nonzero;stroke:none"
           d="m 7402.8,841.781 c -27.23,0 -52.36,4.02 -75.41,12.055 -23.05,8.039 -42.85,20.012 -59.42,35.926 -16.57,15.91 -29.4,35.758 -38.51,59.543 -9.1,23.781 -13.65,51.255 -13.65,82.425 0,29.03 4.35,55.36 13.04,78.98 8.69,23.62 21.32,43.88 37.89,60.77 15.91,16.24 35.64,28.79 59.17,37.65 23.54,8.85 49.25,13.28 77.14,13.28 15.42,0 29.32,-0.86 41.7,-2.58 12.39,-1.72 23.83,-3.98 34.33,-6.77 10.99,-3.11 20.95,-6.6 29.89,-10.45 8.94,-3.86 16.77,-7.43 23.5,-10.71 v -88.82 h -10.83 c -4.59,3.91 -10.37,8.57 -17.34,13.96 -6.97,5.39 -14.89,10.69 -23.75,15.91 -9.02,5.22 -18.78,9.62 -29.28,13.22 -10.49,3.59 -21.73,5.38 -33.7,5.38 -13.29,0 -25.92,-2.09 -37.9,-6.26 -11.97,-4.18 -23.04,-11.1 -33.21,-20.75 -9.68,-9.33 -17.51,-21.69 -23.5,-37.07 -5.99,-15.39 -8.98,-34.05 -8.98,-55.99 0,-22.92 3.24,-42.074 9.72,-57.449 6.48,-15.39 14.64,-27.504 24.48,-36.347 10.01,-8.993 21.16,-15.434 33.46,-19.274 12.31,-3.84 24.44,-5.769 36.42,-5.769 11.48,0 22.84,1.711 34.08,5.14 11.23,3.434 21.61,8.078 31.12,13.957 8.04,4.731 15.5,9.785 22.39,15.172 6.89,5.387 12.55,10.035 16.98,13.957 h 9.84 v -87.594 c -9.19,-4.097 -17.96,-7.953 -26.33,-11.562 -8.36,-3.609 -17.14,-6.727 -26.32,-9.352 -11.98,-3.441 -23.21,-6.07 -33.71,-7.871 -10.5,-1.804 -24.94,-2.707 -43.31,-2.707" />
        <path
           inkscape:connector-curvature="0"
           id="path4679"
           style="fill:#009390;fill-opacity:1;fill-rule:nonzero;stroke:none"
           d="m 7794.6,990.145 -45.06,131.255 -45.08,-131.255 z m 145.81,-141.227 h -97.57 l -25.52,74.059 h -135.57 l -25.53,-74.059 h -95.21 l 135.33,366.362 h 108.75 l 135.32,-366.362" />
        <path
           inkscape:connector-curvature="0"
           id="path4681"
           style="fill:#009390;fill-opacity:1;fill-rule:nonzero;stroke:none"
           d="m 8257.32,848.918 h -264.25 v 366.362 h 94.48 V 919.777 h 169.77 v -70.859" />
        <path
           inkscape:connector-curvature="0"
           id="path4683"
           style="fill:#009390;fill-opacity:1;fill-rule:nonzero;stroke:none"
           d="m 8679.14,990.145 -45.07,131.255 -45.08,-131.255 z m 145.81,-141.227 h -97.57 l -25.52,74.059 h -135.57 l -25.54,-74.059 h -95.2 l 135.32,366.362 h 108.75 l 135.33,-366.362" />
        <path
           inkscape:connector-curvature="0"
           id="path4685"
           style="fill:#009390;fill-opacity:1;fill-rule:nonzero;stroke:none"
           d="m 9210.75,848.918 h -91.04 l -155.5,251.462 V 848.918 h -86.61 v 366.362 h 112.94 l 133.6,-209.88 v 209.88 h 86.61 V 848.918" />
        <path
           inkscape:connector-curvature="0"
           id="path4687"
           style="fill:#009390;fill-opacity:1;fill-rule:nonzero;stroke:none"
           d="m 9552.75,1032.46 c 0,24.12 -4.38,44.75 -13.16,61.89 -8.78,17.14 -22.68,30.55 -41.7,40.22 -9.68,4.76 -19.56,8 -29.65,9.72 -10.09,1.73 -25.3,2.59 -45.64,2.59 h -23.87 V 917.563 h 23.87 c 22.47,0 38.95,1.027 49.45,3.074 10.5,2.051 20.75,5.785 30.76,11.195 17.22,9.844 29.85,23.008 37.89,39.492 8.04,16.485 12.05,36.866 12.05,61.136 z m 97.68,-0.73 c 0,-34.121 -7.79,-64.671 -23.37,-91.656 -15.58,-26.98 -35.27,-47.691 -59.05,-62.125 -17.88,-10.824 -37.48,-18.371 -58.81,-22.636 -21.32,-4.266 -46.58,-6.395 -75.78,-6.395 h -129.17 v 366.362 h 132.86 c 29.86,0 55.61,-2.5 77.26,-7.51 21.65,-5 39.86,-12.09 54.62,-21.28 25.26,-15.42 45.15,-36.21 59.67,-62.37 14.52,-26.16 21.77,-56.96 21.77,-92.39" />
        <path
           inkscape:connector-curvature="0"
           id="path4689"
           style="fill:#009390;fill-opacity:1;fill-rule:nonzero;stroke:none"
           d="m 6050.53,244.23 h -94.48 V 405.641 H 5816.54 V 244.23 h -94.48 v 366.364 h 94.48 V 476.5 h 139.51 v 134.094 h 94.48 V 244.23" />
        <path
           inkscape:connector-curvature="0"
           id="path4691"
           style="fill:#009390;fill-opacity:1;fill-rule:nonzero;stroke:none"
           d="m 6409.02,244.23 h -264.99 v 366.364 h 264.99 V 539.73 h -171 V 476.5 h 158.7 v -70.859 h -158.7 V 315.09 h 171 v -70.86" />
        <path
           inkscape:connector-curvature="0"
           id="path4693"
           style="fill:#009390;fill-opacity:1;fill-rule:nonzero;stroke:none"
           d="m 6681,385.461 -45.07,131.25 -45.08,-131.25 z M 6826.81,244.23 h -97.57 l -25.52,74.059 h -135.57 l -25.54,-74.059 h -95.2 l 135.32,366.364 h 108.75 L 6826.81,244.23" />
        <path
           inkscape:connector-curvature="0"
           id="path4695"
           style="fill:#009390;fill-opacity:1;fill-rule:nonzero;stroke:none"
           d="m 7143.72,244.23 h -264.26 v 366.364 h 94.48 V 315.09 h 169.78 v -70.86" />
        <path
           inkscape:connector-curvature="0"
           id="path4697"
           style="fill:#009390;fill-opacity:1;fill-rule:nonzero;stroke:none"
           d="m 7487.2,539.73 h -114.41 v -295.5 h -94.49 v 295.5 h -114.41 v 70.864 H 7487.2 V 539.73" />
        <path
           inkscape:connector-curvature="0"
           id="path4699"
           style="fill:#009390;fill-opacity:1;fill-rule:nonzero;stroke:none"
           d="m 7872.51,244.23 h -94.49 v 161.411 h -139.5 V 244.23 h -94.49 v 366.364 h 94.49 V 476.5 h 139.5 v 134.094 h 94.49 V 244.23" />
        <path
           inkscape:connector-curvature="0"
           id="path4701"
           style="fill:#009390;fill-opacity:1;fill-rule:nonzero;stroke:none"
           d="m 8431.52,359.379 c 0,-36.09 -15.29,-65.41 -45.89,-87.957 -30.59,-22.563 -72.13,-33.832 -124.62,-33.832 -30.34,0 -56.79,2.66 -79.35,7.992 -22.55,5.328 -43.67,12.098 -63.35,20.297 v 87.84 h 10.33 c 19.52,-15.578 41.38,-27.559 65.57,-35.918 24.2,-8.371 47.45,-12.551 69.75,-12.551 5.75,0 13.29,0.488 22.64,1.48 9.35,0.981 16.98,2.622 22.88,4.918 7.22,2.954 13.17,6.641 17.84,11.071 4.68,4.429 7.01,10.992 7.01,19.679 0,8.043 -3.4,14.973 -10.21,20.793 -6.8,5.829 -16.77,10.297 -29.89,13.411 -13.78,3.277 -28.34,6.359 -43.68,9.226 -15.33,2.871 -29.73,6.524 -43.18,10.953 -30.83,10 -53.02,23.578 -66.55,40.719 -13.53,17.141 -20.3,38.422 -20.3,63.852 0,34.117 15.3,61.957 45.89,83.527 30.59,21.57 69.92,32.355 117.98,32.355 24.11,0 47.93,-2.336 71.47,-7.011 23.54,-4.672 43.92,-10.539 61.15,-17.59 v -84.395 h -10.09 c -14.77,11.813 -32.85,21.692 -54.26,29.653 -21.4,7.949 -43.26,11.929 -65.57,11.929 -7.87,0 -15.7,-0.531 -23.49,-1.601 -7.8,-1.071 -15.3,-3.078 -22.52,-6.028 -6.39,-2.461 -11.89,-6.191 -16.48,-11.191 -4.6,-5.012 -6.89,-10.711 -6.89,-17.102 0,-9.679 3.69,-17.097 11.07,-22.269 7.38,-5.168 21.32,-9.879 41.83,-14.149 13.45,-2.789 26.37,-5.492 38.75,-8.121 12.38,-2.621 25.71,-6.23 39.98,-10.82 28.05,-9.187 48.76,-21.699 62.13,-37.527 13.37,-15.821 20.05,-36.371 20.05,-61.633" />
        <path
           inkscape:connector-curvature="0"
           id="path4703"
           style="fill:#009390;fill-opacity:1;fill-rule:nonzero;stroke:none"
           d="m 8661.82,237.102 c -27.23,0 -52.37,4.007 -75.41,12.046 -23.05,8.043 -42.86,20.012 -59.42,35.922 -16.57,15.918 -29.4,35.758 -38.51,59.551 -9.1,23.777 -13.65,51.258 -13.65,82.418 0,29.039 4.34,55.359 13.04,78.981 8.69,23.621 21.32,43.878 37.89,60.781 15.91,16.238 35.63,28.785 59.17,37.64 23.54,8.86 49.25,13.286 77.14,13.286 15.42,0 29.32,-0.86 41.7,-2.582 12.39,-1.723 23.83,-3.977 34.33,-6.766 10.99,-3.117 20.95,-6.602 29.89,-10.457 8.94,-3.856 16.77,-7.422 23.5,-10.703 v -88.821 h -10.83 c -4.59,3.911 -10.37,8.571 -17.35,13.954 -6.97,5.386 -14.88,10.687 -23.74,15.91 -9.02,5.218 -18.78,9.629 -29.28,13.218 -10.5,3.602 -21.73,5.391 -33.71,5.391 -13.28,0 -25.91,-2.09 -37.89,-6.262 -11.97,-4.187 -23.04,-11.097 -33.21,-20.75 -9.68,-9.339 -17.51,-21.699 -23.5,-37.07 -5.99,-15.398 -8.98,-34.051 -8.98,-55.988 0,-22.93 3.24,-42.082 9.72,-57.461 6.48,-15.391 14.64,-27.5 24.48,-36.34 10,-9 21.16,-15.43 33.46,-19.281 12.3,-3.84 24.44,-5.758 36.42,-5.758 11.48,0 22.84,1.699 34.07,5.141 11.24,3.429 21.61,8.07 31.13,13.949 8.04,4.73 15.5,9.789 22.39,15.179 6.89,5.379 12.55,10.032 16.98,13.95 h 9.84 v -87.59 c -9.19,-4.102 -17.96,-7.961 -26.33,-11.57 -8.36,-3.598 -17.14,-6.719 -26.33,-9.34 -11.97,-3.45 -23.21,-6.071 -33.7,-7.879 -10.5,-1.801 -24.94,-2.699 -43.31,-2.699" />
        <path
           inkscape:connector-curvature="0"
           id="path4705"
           style="fill:#009390;fill-opacity:1;fill-rule:nonzero;stroke:none"
           d="m 9058.94,244.23 h -214.55 v 64.961 h 60.03 v 236.45 h -60.03 v 64.953 h 214.55 v -64.953 h -60.04 v -236.45 h 60.04 V 244.23" />
        <path
           inkscape:connector-curvature="0"
           id="path4707"
           style="fill:#009390;fill-opacity:1;fill-rule:nonzero;stroke:none"
           d="m 9400.94,244.23 h -264.99 v 366.364 h 264.99 V 539.73 h -171 V 476.5 h 158.7 v -70.859 h -158.7 V 315.09 h 171 v -70.86" />
        <path
           inkscape:connector-curvature="0"
           id="path4709"
           style="fill:#009390;fill-opacity:1;fill-rule:nonzero;stroke:none"
           d="m 9813.32,244.23 h -91.04 l -155.5,251.461 V 244.23 h -86.61 v 366.364 h 112.94 l 133.6,-209.875 v 209.875 h 86.61 V 244.23" />
        <path
           inkscape:connector-curvature="0"
           id="path4711"
           style="fill:#009390;fill-opacity:1;fill-rule:nonzero;stroke:none"
           d="m 10072.4,237.102 c -27.2,0 -52.4,4.007 -75.41,12.046 -23.05,8.043 -42.85,20.012 -59.42,35.922 -16.57,15.918 -29.4,35.758 -38.51,59.551 -9.1,23.777 -13.65,51.258 -13.65,82.418 0,29.039 4.35,55.359 13.04,78.981 8.69,23.621 21.32,43.878 37.89,60.781 15.91,16.238 35.64,28.785 59.17,37.64 23.59,8.86 49.29,13.286 77.09,13.286 15.5,0 29.4,-0.86 41.8,-2.582 12.3,-1.723 23.8,-3.977 34.3,-6.766 11,-3.117 20.9,-6.602 29.9,-10.457 8.9,-3.856 16.7,-7.422 23.5,-10.703 v -88.821 h -10.9 c -4.5,3.911 -10.3,8.571 -17.3,13.954 -7,5.386 -14.9,10.687 -23.7,15.91 -9.1,5.218 -18.8,9.629 -29.3,13.218 -10.5,3.602 -21.8,5.391 -33.7,5.391 -13.3,0 -26,-2.09 -37.9,-6.262 -12,-4.187 -23.1,-11.097 -33.2,-20.75 -9.7,-9.339 -17.55,-21.699 -23.54,-37.07 -5.99,-15.398 -8.98,-34.051 -8.98,-55.988 0,-22.93 3.24,-42.082 9.72,-57.461 6.48,-15.391 14.6,-27.5 24.5,-36.34 10,-9 21.1,-15.43 33.4,-19.281 12.3,-3.84 24.5,-5.758 36.5,-5.758 11.4,0 22.8,1.699 34,5.141 11.3,3.429 21.6,8.07 31.2,13.949 8,4.73 15.5,9.789 22.4,15.179 6.8,5.379 12.5,10.032 16.9,13.95 h 9.9 v -87.59 c -9.2,-4.102 -18,-7.961 -26.4,-11.57 -8.3,-3.598 -17.1,-6.719 -26.3,-9.34 -12,-3.45 -23.2,-6.071 -33.7,-7.879 -10.5,-1.801 -24.9,-2.699 -43.3,-2.699" />
        <path
           inkscape:connector-curvature="0"
           id="path4713"
           style="fill:#009390;fill-opacity:1;fill-rule:nonzero;stroke:none"
           d="m 10536.4,244.23 h -264.9 v 366.364 h 264.9 V 539.73 h -171 V 476.5 h 158.7 v -70.859 h -158.7 V 315.09 h 171 v -70.86" />
        <path
           inkscape:connector-curvature="0"
           id="path4715"
           style="fill:#009390;fill-opacity:1;fill-rule:nonzero;stroke:none"
           d="m 10909,359.379 c 0,-36.09 -15.3,-65.41 -45.9,-87.957 -30.6,-22.563 -72.2,-33.832 -124.7,-33.832 -30.3,0 -56.7,2.66 -79.3,7.992 -22.6,5.328 -43.7,12.098 -63.4,20.297 v 87.84 h 10.4 c 19.5,-15.578 41.4,-27.559 65.5,-35.918 24.2,-8.371 47.5,-12.551 69.8,-12.551 5.7,0 13.3,0.488 22.6,1.48 9.4,0.981 17,2.622 22.9,4.918 7.2,2.954 13.2,6.641 17.9,11.071 4.6,4.429 7,10.992 7,19.679 0,8.043 -3.4,14.973 -10.2,20.793 -6.8,5.829 -16.8,10.297 -29.9,13.411 -13.8,3.277 -28.4,6.359 -43.7,9.226 -15.3,2.871 -29.7,6.524 -43.2,10.953 -30.8,10 -53,23.578 -66.5,40.719 -13.6,17.141 -20.3,38.422 -20.3,63.852 0,34.117 15.3,61.957 45.8,83.527 30.6,21.57 70,32.355 118,32.355 24.1,0 48,-2.336 71.5,-7.011 23.5,-4.672 43.9,-10.539 61.1,-17.59 v -84.395 h -10 c -14.8,11.813 -32.9,21.692 -54.3,29.653 -21.4,7.949 -43.3,11.929 -65.6,11.929 -7.8,0 -15.7,-0.531 -23.5,-1.601 -7.8,-1.071 -15.3,-3.078 -22.5,-6.028 -6.4,-2.461 -11.9,-6.191 -16.5,-11.191 -4.6,-5.012 -6.9,-10.711 -6.9,-17.102 0,-9.679 3.7,-17.097 11.1,-22.269 7.4,-5.168 21.3,-9.879 41.8,-14.149 13.5,-2.789 26.4,-5.492 38.8,-8.121 12.4,-2.621 25.7,-6.23 40,-10.82 28,-9.187 48.7,-21.699 62.1,-37.527 13.4,-15.821 20.1,-36.371 20.1,-61.633" />
      </g>
    </g>
  </g>
</svg>
